<svg xmlns="http://www.w3.org/2000/svg" width="1800" height="470.088" viewBox="0 0 1800 470.088">
  <g id="Group_9728" data-name="Group 9728" transform="translate(834 22)">
    <path id="Path_62806" data-name="Path 62806" d="M-651.3,448.088-834,448V-22H966V448c-61,0-181.889-.037-181.889-.037s-2.824-1.474-3.8-2.006c-6.718-3.65-11.9-8.8-13.839-16.267-1.786-6.887-2.549-14.033-4-21.015-15.093-72.607-79.747-125.047-155.029-124.981q-541.382.475-1082.765.16c-49.005.005-89.769,18.543-121.627,55.755-20.757,24.246-33.155,52.347-36.18,84.382-.717,7.6-4.3,15.3-10.489,20.011a19.125,19.125,0,0,1-4.127,2.578,9.243,9.243,0,0,1-1.5.719A4.78,4.78,0,0,0-651.3,448.088Z" fill="#e73827"/>
  </g>
</svg>
