<svg xmlns="http://www.w3.org/2000/svg" width="425" height="86.251" viewBox="0 0 425 86.251">
  <g id="Group_8588" data-name="Group 8588" transform="translate(-30.043 -202.99)">
    <path id="Path_7073" data-name="Path 7073" d="M30.543,288.741V203.559h2.37q75.489,0,150.978.012c7.1,0,12.51,3.677,16.753,8.948,2.516,3.126,4.321,6.869,6.23,10.453,6.01,11.281,15.218,18.386,27.589,20.731a39.4,39.4,0,0,0,42.749-20.583c2.183-4.244,3.868-8.822,7.562-12.082a62.215,62.215,0,0,1,5.414-4.335c3.929-2.756,8.34-3.224,13.07-3.213q74.331.169,148.661.069h2.624v85.182Z" fill="#fff" stroke="#c9c9c9" stroke-width="1"/>
  </g>
</svg>
